<?xml version="1.0" standalone="no"?>
<!DOCTYPE svg PUBLIC "-//W3C//DTD SVG 20010904//EN"
 "http://www.w3.org/TR/2001/REC-SVG-20010904/DTD/svg10.dtd">
<svg version="1.0" xmlns="http://www.w3.org/2000/svg"
 width="1920.000000pt" height="1080.000000pt" viewBox="0 0 1920.000000 1080.000000"
 preserveAspectRatio="xMidYMid meet">
<metadata>
Created by potrace 1.15, written by Peter Selinger 2001-2017
</metadata>
<g transform="translate(0.000000,1080.000000) scale(0.100000,-0.100000)"
fill="#000000" stroke="none">
<path d="M9010 9454 c-25 -2 -106 -11 -180 -20 -1095 -126 -2083 -692 -2741
-1569 -367 -489 -623 -1073 -733 -1675 -53 -289 -61 -391 -61 -760 0 -369 8
-471 61 -760 180 -984 728 -1870 1529 -2471 480 -361 1058 -616 1650 -729 246
-47 401 -61 705 -67 330 -5 476 4 497 33 21 29 17 120 -7 144 -19 19 -33 20
-367 20 -320 0 -362 2 -523 26 -334 48 -730 151 -909 235 -36 17 -109 51 -164
75 -137 62 -319 156 -397 206 -243 156 -305 200 -451 321 -442 364 -815 832
-1031 1292 -187 396 -265 630 -332 995 -48 262 -56 356 -56 675 0 319 8 413
56 675 67 365 145 599 332 995 216 460 589 928 1031 1292 146 121 208 165 451
321 78 50 260 144 397 206 55 24 128 58 164 75 179 84 575 187 909 235 158 23
205 26 485 26 280 0 327 -3 485 -26 334 -48 730 -151 909 -235 36 -17 109 -51
164 -75 137 -62 319 -156 397 -206 243 -156 305 -200 451 -321 283 -233 583
-558 757 -819 170 -255 250 -404 390 -728 120 -276 219 -671 263 -1048 7 -56
18 -110 24 -119 15 -20 126 -23 149 -4 25 21 30 77 17 200 -118 1117 -686
2124 -1576 2792 -480 361 -1058 616 -1650 729 -261 50 -396 62 -730 65 -176 1
-340 1 -365 -1z"/>
<path d="M7530 7640 c0 -370 1 -390 18 -390 15 0 21 15 34 88 41 228 126 321
341 372 74 18 118 20 455 20 l372 0 0 -1340 c0 -737 4 -1340 8 -1340 5 0 81
74 170 164 l162 163 0 1177 0 1176 371 0 c411 0 455 -5 584 -65 132 -61 183
-149 220 -377 4 -29 11 -38 25 -38 20 0 20 10 20 390 0 384 0 390 -20 390 -11
0 -36 -18 -56 -40 -50 -56 -145 -100 -236 -111 -100 -11 -2005 -11 -2145 1
-138 11 -185 30 -244 99 -82 95 -79 105 -79 -339z"/>
<path d="M10043 6243 l-42 -48 157 -6 c86 -3 178 -11 204 -17 357 -87 568
-393 545 -790 -8 -129 -27 -204 -75 -297 -84 -159 -242 -259 -472 -299 -47 -8
-160 -17 -252 -21 l-168 -7 -2 688 -3 689 -167 -170 -168 -169 0 -1171 c0
-1046 -2 -1177 -16 -1225 -36 -121 -117 -189 -251 -212 -59 -10 -73 -15 -73
-30 0 -17 25 -18 510 -18 491 0 510 1 510 19 0 15 -10 19 -53 24 -92 11 -148
36 -202 91 -88 88 -85 64 -85 772 l0 614 73 0 c146 0 286 -53 418 -158 152
-121 204 -191 499 -677 225 -369 298 -483 392 -607 l59 -78 294 0 c284 0 295
1 295 19 0 15 -10 21 -39 26 -55 9 -147 55 -207 103 -80 63 -184 211 -380 542
-274 460 -332 547 -454 671 -65 66 -135 126 -183 157 l-77 49 87 23 c275 73
475 270 543 536 40 153 24 373 -38 529 -90 229 -283 392 -547 465 -70 20 -110
23 -335 27 l-255 4 -42 -48z"/>
</g>
</svg>
